PathFileType	4	(X/Y/Z)	pose_F01_0-89.trc
DataRate	CameraRate	NumFrames	NumMarkers	Units	OrigDataRate	OrigDataStartFrame	OrigNumFrames
30	30	9	21	m	30	0	89
Frame#	Time	CHip			RHip			RKnee			RAnkle			RBigToe			RSmallToe			RHeel			LHip			LKnee			LAnkle			LBigToe			LSmallToe			LHeel			Neck			Nose			RShoulder			RElbow			RWrist			LShoulder			LElbow			LWrist			
		X1	Y1	Z1	X2	Y2	Z2	X3	Y3	Z3	X4	Y4	Z4	X5	Y5	Z5	X6	Y6	Z6	X7	Y7	Z7	X8	Y8	Z8	X9	Y9	Z9	X10	Y10	Z10	X11	Y11	Z11	X12	Y12	Z12	X13	Y13	Z13	X14	Y14	Z14	X15	Y15	Z15	X16	Y16	Z16	X17	Y17	Z17	X18	Y18	Z18	X19	Y19	Z19	X20	Y20	Z20	X21	Y21	Z21	
0	0.0	-0.2011741372250857	1.8785947226240598	-0.5784863459863239	-0.20392956910708895	1.865475534996443	-0.4697546825187288	-0.21855710159920186	1.6983461520184728	-0.42890735340243596													-0.1734231931725762	1.879688187504709	-0.6003409934440048	-0.11527854307877833	1.6951109900510444	-0.6316682254492794	-0.17126109058132644	1.5527398188377166	-0.53934727122493	-0.17168508755948242	1.5310994077572029	-0.559299399399219	-0.12490285517822713	1.5581536254053776	-0.6059299762365075	-0.20920731022868502	1.5624303423443306	-0.53698359143998	-0.15243361311713918	2.0463597168520997	-0.5741771282483268	-0.2429489680982094	2.12741234650362	-0.594820179662655	-0.17176544472322874	2.0466127740619178	-0.48819261798891217	-0.17753917536616373	1.9376478069725438	-0.5630144646683468	-0.22239405833483616	1.8081011697040092	-0.4439618741230378	-0.16530894386833686	2.0431782174740367	-0.6704917093241802	-1.48301419802638	1.8737821889750537	0.7258168774806023	-0.18101524253029325	1.8816807177165216	-0.6719018381431928
1	0.03333333333333333	-0.20298777580162633	1.8778333460787089	-0.5762310526442879	-0.20666527172746735	1.8655977199127949	-0.47058216299102684	-0.21940808170310447	1.6994037980083254	-0.4326422860793985													-0.17614617049711465	1.8789144425537838	-0.6009976993647689	-0.12228683014015837	1.6967818391013882	-0.6288794064168847	-0.1724138754170452	1.5538628965269763	-0.5423873695117608	-0.17576805952855498	1.5307260886310865	-0.5636506733945532	-0.13137810724764862	1.5563539929612273	-0.6075863018244906	-0.20693689412837302	1.5619228456697722	-0.5393045054122375	-0.15737225188600648	2.046332818897881	-0.5726193149537578	-0.24307060561960422	2.1265753195136425	-0.5951554639520664	-0.17673258071605838	2.0466159563216744	-0.48684260969970605	-0.182207931225872	1.938717853135354	-0.5532512888204086	-0.22467668032067784	1.8133542028591583	-0.4427410257292961	-0.16740132190001786	2.043555651766942	-0.6681499202728207	-1.48301419802638	1.8737821889750537	0.7258168774806023	-0.18101524253029325	1.8816807177165216	-0.6719018381431928
2	0.06666666666666667	-0.20480141437816696	1.877071969533358	-0.5739757593022519	-0.20940097434784574	1.8657199048291468	-0.47140964346332487	-0.22025906180700708	1.700461443998178	-0.436377218756361													-0.17886914782165309	1.8781406976028587	-0.6016544052855329	-0.1292951172015384	1.6984526881517321	-0.62609058738449	-0.17356666025276396	1.554985974216236	-0.5454274677985916	-0.17985103149762754	1.5303527695049701	-0.5680019473898874	-0.1378533593170701	1.554554360517077	-0.6092426274124737	-0.204666478028061	1.5614153489952138	-0.541625419384495	-0.16231089065487378	2.0463059209436625	-0.5710615016591889	-0.24319224314099905	2.125738292523665	-0.5954907482414779	-0.18169971670888801	2.046619138581431	-0.48549260141049994	-0.18687668708558028	1.939787899298164	-0.5434881129724705	-0.2269593023065195	1.8186072360143073	-0.4415201773355544	-0.16949369993169885	2.0439330860598477	-0.6658081312214612	-1.48301419802638	1.8737821889750537	0.7258168774806023	-0.18101524253029325	1.8816807177165216	-0.6719018381431928
3	0.1	-0.20661505295470758	1.876310592988007	-0.5717204659602159	-0.21213667696822414	1.8658420897454988	-0.4722371239356229	-0.2211100419109097	1.7015190899880306	-0.4401121514333235													-0.18159212514619152	1.8773669526519337	-0.602311111206297	-0.13630340426291845	1.700123537202076	-0.6233017683520953	-0.17471944508848272	1.5561090519054956	-0.5484675660854225	-0.1839340034667001	1.5299794503788537	-0.5723532213852216	-0.14432861138649158	1.5527547280729268	-0.6108989530004568	-0.202396061927749	1.5609078523206554	-0.5439463333567526	-0.16724952942374108	2.046279022989444	-0.56950368836462	-0.24331388066239387	2.1249012655336874	-0.5958260325308893	-0.18666685270171765	2.0466223208411876	-0.4841425931212938	-0.19154544294528855	1.9408579454609742	-0.5337249371245323	-0.22924192429236118	1.8238602691694563	-0.4402993289418127	-0.17158607796337985	2.044310520352753	-0.6634663421701017	-1.48301419802638	1.8737821889750537	0.7258168774806023	-0.18101524253029325	1.8816807177165216	-0.6719018381431928
4	0.13333333333333333	-0.2084286915312482	1.8755492164426562	-0.5694651726181799	-0.21487237958860253	1.8659642746618508	-0.4730646044079209	-0.2219610220148123	1.7025767359778832	-0.443847084110286													-0.18431510247072996	1.8765932077010086	-0.602967817127061	-0.1433116913242985	1.7017943862524199	-0.6205129493197006	-0.17587222992420148	1.5572321295947553	-0.5515076643722533	-0.18801697543577267	1.5296061312527374	-0.5767044953805558	-0.15080386345591307	1.5509550956287765	-0.6125552785884399	-0.200125645827437	1.560400355646097	-0.5462672473290101	-0.17218816819260838	2.0462521250352252	-0.567945875070051	-0.2434355181837887	2.12406423854371	-0.5961613168203007	-0.19163398869454729	2.046625503100944	-0.4827925848320877	-0.19621419880499683	1.9419279916237844	-0.5239617612765941	-0.23152454627820285	1.8291133023246053	-0.43907848054807097	-0.17367845599506085	2.0446879546456587	-0.6611245531187422	-1.48301419802638	1.8737821889750537	0.7258168774806023	-0.18101524253029325	1.8816807177165216	-0.6719018381431928
5	0.16666666666666666	-0.21024233010778884	1.8747878398973052	-0.5672098792761439	-0.21760808220898092	1.8660864595782027	-0.47389208488021894	-0.2228120021187149	1.7036343819677358	-0.4475820167872485													-0.1870380797952684	1.8758194627500835	-0.6036245230478251	-0.15031997838567854	1.7034652353027637	-0.6177241302873059	-0.17702501475992025	1.558355207284015	-0.5545477626590841	-0.19209994740484523	1.529232812126621	-0.58105576937589	-0.15727911552533455	1.5491554631846263	-0.6142116041764231	-0.197855229727125	1.5598928589715386	-0.5485881613012676	-0.17712680696147567	2.0462252270810066	-0.5663880617754821	-0.24355715570518352	2.1232272115537323	-0.5964966011097121	-0.19660112468737692	2.0466286853607008	-0.4814425765428816	-0.2008829546647051	1.9429980377865945	-0.5141985854286559	-0.23380716826404452	1.8343663354797544	-0.43785763215432927	-0.17577083402674185	2.045065388938564	-0.6587827640673827	-1.48301419802638	1.8737821889750537	0.7258168774806023	-0.18101524253029325	1.8816807177165216	-0.6719018381431928
6	0.2	-0.21205596868432947	1.8740264633519543	-0.5649545859341079	-0.22034378482935932	1.8662086444945547	-0.47471956535251697	-0.22366298222261752	1.7046920279575883	-0.451316949464211													-0.18976105711980684	1.8750457177991584	-0.6042812289685892	-0.15732826544705858	1.7051360843531076	-0.6149353112549112	-0.178177799595639	1.5594782849732747	-0.557587860945915	-0.1961829193739178	1.5288594930005046	-0.5854070433712242	-0.16375436759475603	1.547355830740476	-0.6158679297644062	-0.195584813626813	1.5593853622969802	-0.5509090752735252	-0.18206544573034297	2.046198329126788	-0.5648302484809131	-0.24367879322657834	2.1223901845637547	-0.5968318853991236	-0.20156826068020656	2.0466318676204573	-0.48009256825367547	-0.20555171052441337	1.9440680839494047	-0.5044354095807178	-0.2360897902498862	1.8396193686349034	-0.43663678376058757	-0.17786321205842284	2.0454428232314696	-0.6564409750160232	-1.48301419802638	1.8737821889750537	0.7258168774806023	-0.18101524253029325	1.8816807177165216	-0.6719018381431928
7	0.23333333333333334	-0.2138696072608701	1.8732650868066034	-0.5626992925920719	-0.2230794874497377	1.8663308294109067	-0.475547045824815	-0.22451396232652013	1.705749673947441	-0.45505188214117354													-0.19248403444434528	1.8742719728482333	-0.6049379348893532	-0.16433655250843862	1.7068069334034515	-0.6121464922225165	-0.17933058443135777	1.5606013626625344	-0.5606279592327458	-0.20026589134299036	1.5284861738743882	-0.5897583173665584	-0.17022961966417752	1.5455561982963257	-0.6175242553523893	-0.19331439752650098	1.5588778656224218	-0.5532299892457827	-0.18700408449921027	2.0461714311725694	-0.5632724351863442	-0.24380043074797317	2.121553157573777	-0.597167169688535	-0.2065353966730362	2.046635049880214	-0.47874255996446935	-0.21022046638412165	1.9451381301122148	-0.4946722337327795	-0.23837241223572786	1.8448724017900524	-0.43541593536684586	-0.17995559009010384	2.045820257524375	-0.6540991859646637	-1.48301419802638	1.8737821889750537	0.7258168774806023	-0.18101524253029325	1.8816807177165216	-0.6719018381431928
8	0.26666666666666666	-0.21568324583741072	1.8725037102612525	-0.5604439992500359	-0.2258151900701161	1.8664530143272586	-0.476374526297113	-0.22536494243042274	1.7068073199372935	-0.45878681481813605													-0.19520701176888372	1.8734982278973082	-0.6055946408101173	-0.17134483956981866	1.7084777824537953	-0.6093576731901218	-0.18048336926707653	1.561724440351794	-0.5636680575195766	-0.20434886331206292	1.5281128547482719	-0.5941095913618926	-0.176704871733599	1.5437565658521755	-0.6191805809403724	-0.19104398142618897	1.5583703689478634	-0.5555509032180402	-0.19194272326807757	2.0461445332183508	-0.5617146218917752	-0.243922068269368	2.1207161305837996	-0.5975024539779464	-0.21150253266586583	2.0466382321399705	-0.47739255167526323	-0.21488922224382992	1.946208176275025	-0.48490905788484134	-0.24065503422156953	1.8501254349452014	-0.43419508697310416	-0.18204796812178484	2.0461976918172806	-0.6517573969133041	-1.48301419802638	1.8737821889750537	0.7258168774806023	-0.18101524253029325	1.8816807177165216	-0.6719018381431928
